# xmcd
#
# Track frame offsets:
#	150
#	20030
#	38913
#	57776
#	75212
#	93019
#	113176
#	131254
#	150143
#	165799
#	185357
#
# Disc length: 2701 seconds
#
# Revision: 4
# Processed by: cddbd v1.5.2PL0 Copyright (c) Steve Scherf et al.
# Submitted via: EasyCDDAExtractor 15.3.0.1
#
DISCID=690a8b0b
DTITLE=Melina Leon - Con Los Pies Sobre La Tierra
DYEAR=1999
DGENRE=Latin
TTITLE0=Si No Vas A Decir Nada
TTITLE1=Te Amo
TTITLE2=Con Los Pies Sobre La Tierra
TTITLE3=Me Voy De Fiesta Hoy
TTITLE4=La Persona Equivocada (Version Merengue)
TTITLE5=Quisiera Olvidarte
TTITLE6=Adios
TTITLE7=No Te Olvide
TTITLE8=No Puedo Amarte
TTITLE9=El Se Fue
TTITLE10=La Persona Equivocada (Duo Con Victor Manuelle)
EXTD=
EXTT0=
EXTT1=
EXTT2=
EXTT3=
EXTT4=
EXTT5=
EXTT6=
EXTT7=
EXTT8=
EXTT9=
EXTT10=
PLAYORDER=
